# Blender 3.5.1
# www.blender.org
mtllib gun.mtl
o EngineerBlink
v -4.749762 12.758240 1.597209
v -5.147793 14.499407 1.423604
v -4.944165 14.474958 2.481173
v -4.860860 16.376251 1.774267
v -4.591127 13.002624 2.633487
v -3.975183 11.978670 1.753669
v -4.687899 16.056364 2.782879
v -4.110973 17.185614 2.049696
v -3.914449 12.319009 2.772909
v -2.939189 11.730839 2.041207
v -2.960805 14.420424 3.488841
v -4.041054 16.756634 3.022144
v -3.044095 12.107486 3.013847
v -2.738828 17.214350 2.574203
v -2.073625 11.759369 2.368653
v -2.902045 16.781879 3.456955
v -1.643674 16.533127 2.965557
v -2.326353 12.131641 3.285973
v -0.941171 12.236650 2.897992
v -1.951420 16.181139 3.765884
v -0.793605 15.646490 3.149374
v -1.358862 12.548888 3.738003
v -0.602412 14.130603 3.154861
v -1.203966 15.427581 3.960506
v -1.055233 14.165388 3.960523
v 4.697824 14.475890 2.456208
v 4.951094 14.500380 1.379995
v 4.532601 12.678312 1.562139
v 4.649874 16.465534 1.747044
v 4.332958 12.958288 2.613205
v 3.704458 11.861000 1.726424
v 4.432972 16.105917 2.767191
v 3.861716 17.313560 2.035990
v 2.649181 14.420335 3.488005
v 3.622600 12.253654 2.756913
v 3.764457 16.827717 3.013812
v 2.734097 12.035630 3.005258
v 2.629935 11.600974 2.027480
v 2.421817 17.344311 2.584869
v 1.723986 11.630264 2.369237
v 2.587288 16.853735 3.461990
v 1.270549 16.630398 3.002829
v 1.992310 12.060534 3.285753
v 0.533707 12.132734 2.911331
v 1.604815 16.234522 3.785524
v 0.376934 15.701968 3.188005
v 0.992405 12.490603 3.741104
v 0.176455 14.116543 3.193821
v 0.832319 15.457798 3.981024
v 0.678604 14.156803 3.981040
vn -0.7465 -0.0559 0.6631
vn -0.9813 -0.0408 0.1880
vn -0.8871 -0.4021 0.2268
vn -0.9165 0.3104 0.2523
vn -0.6561 -0.2275 0.7196
vn -0.5326 -0.7925 0.2971
vn -0.6706 0.1069 0.7341
vn -0.4923 0.7825 0.3811
vn -0.4421 -0.4590 0.7706
vn -0.2212 -0.9169 0.3322
vn -0.3457 -0.0645 0.9361
vn -0.4350 0.3809 0.8159
vn -0.3146 -0.4888 0.8137
vn 0.0361 0.8946 0.4453
vn 0.0521 -0.9203 0.3877
vn -0.2007 0.3822 0.9020
vn 0.4483 0.7456 0.4930
vn -0.2217 -0.4971 0.8389
vn 0.5955 -0.6117 0.5208
vn -0.0292 0.3009 0.9532
vn 0.7718 0.3870 0.5045
vn 0.1283 -0.3419 0.9309
vn 0.8663 -0.0877 0.4917
vn 0.1996 0.1623 0.9663
vn 0.1623 -0.0826 0.9833
vn 0.8760 -0.4001 0.2694
vn 0.9727 -0.0425 0.2280
vn 0.7359 -0.0563 0.6747
vn 0.9067 0.3010 0.2956
vn 0.6448 -0.2247 0.7306
vn 0.5306 -0.7769 0.3391
vn 0.6604 0.1005 0.7442
vn 0.4955 0.7570 0.4260
vn 0.3447 -0.0656 0.9364
vn 0.4373 -0.4477 0.7799
vn 0.4316 0.3662 0.8244
vn 0.3170 -0.4749 0.8210
vn 0.2332 -0.8973 0.3749
vn -0.0124 0.8716 0.4900
vn -0.0335 -0.9010 0.4326
vn 0.2077 0.3671 0.9067
vn -0.4207 0.7289 0.5401
vn 0.2235 -0.4820 0.8472
vn -0.5594 -0.6042 0.5675
vn 0.0434 0.2844 0.9577
vn -0.7432 0.3764 0.5531
vn -0.1153 -0.3350 0.9351
vn -0.8370 -0.0927 0.5393
vn -0.1810 0.1524 0.9716
vn -0.1395 -0.0851 0.9866
vt 0.937891 0.023574
vt 0.941096 0.044522
vt 0.941096 0.044522
vt 0.938627 0.068018
vt 0.937891 0.023574
vt 0.933187 0.015078
vt 0.938627 0.068018
vt 0.934085 0.076375
vt 0.933187 0.015078
vt 0.926561 0.012179
vt 0.925989 0.043735
vt 0.934085 0.076375
vt 0.926561 0.012179
vt 0.925527 0.076665
vt 0.921335 0.012507
vt 0.925527 0.076665
vt 0.918605 0.068515
vt 0.921335 0.012507
vt 0.914291 0.018136
vt 0.918605 0.068515
vt 0.913163 0.057992
vt 0.914291 0.018136
vt 0.912080 0.040357
vt 0.913163 0.057992
vt 0.912080 0.040357
vt 0.941096 0.044522
vt 0.941096 0.044522
vt 0.937891 0.023574
vt 0.938627 0.068018
vt 0.937891 0.023574
vt 0.933187 0.015078
vt 0.938627 0.068018
vt 0.934085 0.076375
vt 0.925989 0.043735
vt 0.933187 0.015078
vt 0.934085 0.076375
vt 0.926561 0.012179
vt 0.926561 0.012179
vt 0.925527 0.076665
vt 0.921335 0.012507
vt 0.925527 0.076665
vt 0.918605 0.068515
vt 0.921335 0.012507
vt 0.914291 0.018136
vt 0.918605 0.068515
vt 0.913163 0.057992
vt 0.914291 0.018136
vt 0.912080 0.040357
vt 0.913163 0.057992
vt 0.912080 0.040357
s 1
usemtl 8cfc5c0be4a4bb7c89a4d4f4574ea670
f 3/3/1 2/2/2 1/1/3
f 4/4/4 2/2/2 3/3/1
f 3/3/1 1/1/3 5/5/5
f 5/5/5 1/1/3 6/6/6
f 4/4/4 3/3/1 7/7/7
f 8/8/8 4/4/4 7/7/7
f 5/5/5 6/6/6 9/9/9
f 9/9/9 6/6/6 10/10/10
f 5/5/5 11/11/11 3/3/1
f 3/3/1 11/11/11 7/7/7
f 9/9/9 11/11/11 5/5/5
f 7/7/7 11/11/11 12/12/12
f 8/8/8 7/7/7 12/12/12
f 9/9/9 13/13/13 11/11/11
f 9/9/9 10/10/10 13/13/13
f 14/14/14 8/8/8 12/12/12
f 13/13/13 10/10/10 15/15/15
f 14/14/14 12/12/12 16/16/16
f 12/12/12 11/11/11 16/16/16
f 17/17/17 14/14/14 16/16/16
f 13/13/13 15/15/15 18/18/18
f 13/13/13 18/18/18 11/11/11
f 18/18/18 15/15/15 19/19/19
f 17/17/17 16/16/16 20/20/20
f 16/16/16 11/11/11 20/20/20
f 21/21/21 17/17/17 20/20/20
f 18/18/18 19/19/19 22/22/22
f 22/22/22 11/11/11 18/18/18
f 22/22/22 19/19/19 23/23/23
f 21/21/21 20/20/20 24/24/24
f 20/20/20 11/11/11 24/24/24
f 23/23/23 21/21/21 24/24/24
f 25/25/25 11/11/11 22/22/22
f 11/11/11 25/25/25 24/24/24
f 22/22/22 23/23/23 25/25/25
f 23/23/23 24/24/24 25/25/25
f 28/28/26 27/27/27 26/26/28
f 26/26/28 27/27/27 29/29/29
f 28/28/26 26/26/28 30/30/30
f 31/31/31 28/28/26 30/30/30
f 26/26/28 29/29/29 32/32/32
f 32/32/32 29/29/29 33/33/33
f 34/34/34 30/30/30 26/26/28
f 34/34/34 26/26/28 32/32/32
f 31/31/31 30/30/30 35/35/35
f 34/34/34 35/35/35 30/30/30
f 34/34/34 32/32/32 36/36/36
f 32/32/32 33/33/33 36/36/36
f 37/37/37 35/35/35 34/34/34
f 38/38/38 31/31/31 35/35/35
f 38/38/38 35/35/35 37/37/37
f 36/36/36 33/33/33 39/39/39
f 40/40/40 38/38/38 37/37/37
f 36/36/36 39/39/39 41/41/41
f 34/34/34 36/36/36 41/41/41
f 41/41/41 39/39/39 42/42/42
f 40/40/40 37/37/37 43/43/43
f 43/43/43 37/37/37 34/34/34
f 44/44/44 40/40/40 43/43/43
f 41/41/41 42/42/42 45/45/45
f 34/34/34 41/41/41 45/45/45
f 45/45/45 42/42/42 46/46/46
f 44/44/44 43/43/43 47/47/47
f 34/34/34 47/47/47 43/43/43
f 48/48/48 44/44/44 47/47/47
f 45/45/45 46/46/46 49/49/49
f 34/34/34 45/45/45 49/49/49
f 49/49/49 46/46/46 48/48/48
f 34/34/34 50/50/50 47/47/47
f 48/48/48 47/47/47 50/50/50
f 50/50/50 34/34/34 49/49/49
f 49/49/49 48/48/48 50/50/50

