# Blender 3.5.1
# www.blender.org
mtllib palu.mtl
g Holder_Mesh
v -0.261645 0.000000 0.200841
v -0.261645 3.713514 0.200841
v -0.261645 0.000000 -0.210354
v -0.261645 3.713514 -0.210354
v 0.231105 0.000000 0.200841
v 0.231105 3.713514 0.200841
v 0.231105 0.000000 -0.210354
v 0.231105 3.713514 -0.210354
vn -1.0000 -0.0000 -0.0000
vn -0.0000 -0.0000 -1.0000
vn 1.0000 -0.0000 -0.0000
vn -0.0000 -0.0000 1.0000
vn -0.0000 -1.0000 -0.0000
vn -0.0000 1.0000 -0.0000
vt 0.375000 0.000000
vt 0.375000 1.000000
vt 0.125000 0.750000
vt 0.625000 0.000000
vt 0.625000 1.000000
vt 0.875000 0.750000
vt 0.125000 0.500000
vt 0.375000 0.250000
vt 0.625000 0.250000
vt 0.875000 0.500000
vt 0.375000 0.750000
vt 0.625000 0.750000
vt 0.375000 0.500000
vt 0.625000 0.500000
s 0
f 2/4/1 3/8/1 1/1/1
f 4/9/2 7/13/2 3/8/2
f 8/14/3 5/11/3 7/13/3
f 6/12/4 1/2/4 5/11/4
f 7/13/5 1/3/5 3/7/5
f 4/10/6 6/12/6 8/14/6
f 2/4/1 4/9/1 3/8/1
f 4/9/2 8/14/2 7/13/2
f 8/14/3 6/12/3 5/11/3
f 6/12/4 2/5/4 1/2/4
f 7/13/5 5/11/5 1/3/5
f 4/10/6 2/6/6 6/12/6
g Head_Mesh
v -1.072239 3.730220 2.528941
v -1.298397 3.410088 2.208809
v -1.072239 5.311189 2.528941
v -1.298397 5.631321 2.208809
v 1.079598 3.730220 2.528941
v 1.305756 3.410088 2.208809
v 1.079598 5.311189 2.528941
v 1.305756 5.631321 2.208809
v -1.100355 3.690421 -2.485982
v -1.298397 3.410088 -2.205649
v -1.298397 5.631321 -2.205649
v -1.100355 5.350987 -2.485982
v 1.107714 3.690421 -2.485982
v 1.305756 3.410088 -2.205649
v 1.305756 5.631321 -2.205649
v 1.107714 5.350987 -2.485982
vn -0.0000 -0.0000 1.0000
vn -0.0000 -1.0000 -0.0000
vn 1.0000 -0.0000 -0.0000
vn -0.0000 -0.0000 -1.0000
vn -0.8167 -0.0000 0.5770
vn 0.8167 -0.0000 0.5770
vn -0.0000 -0.7071 0.7071
vn -0.0000 0.7071 0.7071
vn -0.0000 1.0000 -0.0000
vn -0.8167 -0.0000 -0.5770
vn -0.0000 -0.7071 -0.7071
vn -0.0000 0.7071 -0.7071
vn 0.8167 -0.0000 -0.5770
vn -1.0000 -0.0000 -0.0000
vt 0.411031 0.978289
vt 0.375000 0.015959
vt 0.125000 0.734041
vt 0.375000 1.000000
vt 0.588969 0.978289
vt 0.625000 1.000000
vt 0.875000 0.734041
vt 0.625000 0.015959
vt 0.411031 0.771711
vt 0.375000 0.734041
vt 0.375000 0.750000
vt 0.588969 0.771711
vt 0.625000 0.750000
vt 0.625000 0.734041
vt 0.406552 0.269012
vt 0.125000 0.513975
vt 0.375000 0.250000
vt 0.375000 0.236025
vt 0.625000 0.250000
vt 0.875000 0.513975
vt 0.625000 0.236025
vt 0.593449 0.269012
vt 0.406552 0.480988
vt 0.375000 0.500000
vt 0.375000 0.513975
vt 0.625000 0.513975
vt 0.625000 0.500000
vt 0.593448 0.480988
s 0
f 15/26/7 9/15/7 13/23/7
f 22/39/8 10/17/8 18/30/8
f 23/40/9 14/24/9 22/39/9
f 20/36/10 21/37/10 17/29/10
f 11/19/11 10/18/11 9/15/11
f 13/23/12 16/28/12 15/26/12
f 14/25/13 9/15/13 10/18/13
f 12/20/14 15/26/14 16/27/14
f 19/34/15 16/28/15 23/40/15
f 17/29/16 19/35/16 20/36/16
f 18/31/17 21/37/17 22/38/17
f 23/41/18 20/36/18 19/33/18
f 22/39/19 24/42/19 23/40/19
f 12/22/20 18/32/20 10/16/20
f 15/26/7 11/19/7 9/15/7
f 22/39/8 14/24/8 10/17/8
f 23/40/9 16/28/9 14/24/9
f 20/36/10 24/42/10 21/37/10
f 11/19/11 12/20/11 10/18/11
f 13/23/12 14/24/12 16/28/12
f 14/25/13 13/23/13 9/15/13
f 12/20/14 11/19/14 15/26/14
f 19/34/15 12/21/15 16/28/15
f 17/29/16 18/32/16 19/35/16
f 18/31/17 17/29/17 21/37/17
f 23/41/18 24/42/18 20/36/18
f 22/39/19 21/37/19 24/42/19
f 12/22/20 19/35/20 18/32/20